Patient4_TMGait_0pt3_02_right_29_EMG.mot
version=1
nRows=40
nColumns=33
inDegrees=no
endheader
time	1LAddLong	2LGlutMax	3LGlutMed	4LIliopsoas	5LSemiMemb	6LBicFemLong	7LRecFem	8LVastMed	9LVastLat	10LGasMed	11LTibAnt	12lTibPost	13LPeroneusLong	14LSol	15LExtDigLong	16LFlexDigLong	17RAddLong	18RGlutMax	19RGlutMed	20RIliopsoas	21RSemiMemb	22RBicFemLong	23RRecFem	24RVastMed	25RVastLat	26RGasMed	27RTibAnt	28RTibPost	29RPeroneusLong	30RSol	31RExtDigLong	32RFlexDigLong
56.465	0.006561	-0.16312	0.10635	-0.015717	0.045166	0.028229	-0.010529	0.016022	-0.005035	0.027618	-0.15732	0.006866	0.044556	-0.25772	-0.32974	0.004883	-0.081177	0.86868	0.28885	-0.042419	0.13687	0.000305	-0.88974	0.13275	0.33859	0	0.91904	-0.20477	-0.1297	0.036774	-0.003967	-0.012665
56.466	-0.002747	-0.168	0.080109	-0.010376	0.048523	0.10788	-0.002136	0.008087	0.001831	0.014038	-0.091248	0.004578	0.026703	-0.3183	0.040894	0.020447	-0.086365	0.72388	0.77377	-0.046539	-0.080719	0.059357	-1.0257	0.09552	0.21484	0.009308	0.074768	0.039978	-0.002136	-0.19104	-0.005951	-0.001526
56.467	-0.009918	-0.224	0.084229	-0.006561	0.040283	0.12283	0.006104	0.009613	0.002899	0.008392	-0.04715	0.011139	0.041809	-0.42862	0.24948	0.02121	-0.032501	0.62241	0.46921	0.035706	-0.065308	0.002747	-0.63446	0.10513	0.087433	0.020142	-0.1326	0.12299	0.1767	0.097656	-0.004272	-0.007629
56.468	-0.003052	-0.23865	0.086975	0.006866	0	0.10635	-0.027313	0.014191	0.002899	-0.001831	-0.009003	0.002441	0.042725	-0.354	0.26611	-0.002289	0.010071	0.57678	0.057373	0.12222	0.087891	-0.049133	-0.25971	0.098877	-0.16022	-0.005341	0.037537	0.040588	0.12268	0.58731	-0.002441	0.003967
56.469	-0.00473	-0.24292	0.081024	0.016632	-0.022583	0.10712	-0.019379	0.018005	0.014801	0.018158	0.024872	0.011444	0.00351	-0.20691	0.25574	0.006561	-0.011902	0.6723	0.54703	0.053101	0.25574	-0.07782	0.027924	0.092773	-0.12894	0.005646	0.22949	0.012054	0.076447	0.625	-0.014954	-0.009918
56.47	-0.003662	-0.23956	0.073395	0.020142	-0.020447	0.075836	-0.054016	0.01709	0.01236	0.041351	0.017853	0.011292	-0.054779	-0.28992	0.32577	-0.001068	-0.022736	0.70648	0.76569	0.004883	0.19363	-0.025482	0.075226	0.066986	-0.024261	-0.007935	-0.11963	-0.005798	0.099487	0.30395	-0.008087	-0.019073
56.471	0.009918	-0.21454	0.079803	0.016174	-0.016785	0.054626	-0.053406	0.014191	0.022278	0.05661	-0.032349	0.010681	-0.018616	-0.36529	0.54993	0.009918	-0.07431	0.58945	0.70175	-0.05722	0.085144	-0.015411	-0.090485	0.084076	-0.2298	-0.016479	0.071259	-0.016174	0.003204	0.3743	0.008087	-0.012817
56.472	-0.00061	-0.21927	0.088806	0.011749	-0.013885	0.012207	-0.056915	0.013123	0.026703	0.060577	-0.065765	0.009308	-0.069733	-0.28793	0.62531	0.011749	-0.10544	0.36423	0.2533	-0.058594	-0.15259	0.035553	-0.12848	0.13596	-0.48721	-0.010529	-0.070496	-0.016632	-0.016022	0.18219	-0.008545	-0.010376
56.473	0.016937	-0.28809	0.089264	0.006104	0.013885	-0.063171	-0.031281	0.00885	0.020599	0.017853	-0.052795	0.007019	-0.031281	-0.10284	0.86914	0.010529	-0.087585	0.16205	0.2623	-0.026093	-0.26962	0.068359	0.009766	0.029297	-0.51437	-0.009766	-0.39597	-0.021667	0.15289	0.14282	-0.009918	-0.015869
56.474	0.016479	-0.27359	0.073242	0.002136	0.036469	-0.12848	-0.049744	0.007019	0.022125	-0.024872	0.071106	0.006409	0.044708	0.00351	0.29923	0.013885	-0.068512	-0.022736	-0.12329	-0.002289	-0.068817	-0.1088	0.14954	-0.12192	-0.47501	0.002594	-0.42541	-0.019836	0.45548	-0.014191	-0.002747	-0.010376
56.475	0.012665	-0.31036	0.077209	0.007172	0.024109	-0.11383	-0.03418	0.009003	0.027466	-0.023499	-0.006256	0.00473	0.091553	-0.028687	0.60577	-0.002441	-0.016785	0.045166	-0.40268	-0.027161	-0.015106	-0.15228	0.14603	0.67398	-0.27023	0.018463	-0.18341	-0.028381	0.25436	-0.074463	-0.006561	-0.011292
56.476	0.014496	-0.26657	0.082245	0.010071	0.002441	-0.10635	-0.026703	0.001221	0.020905	0.00824	-0.1535	0.005951	0.006714	-0.025787	-0.32501	-0.004272	0.00946	0.1442	-0.1149	-0.097351	-0.097961	-0.16861	0.077667	1.2486	-0.001678	0.023804	0.044708	-0.023804	-0.33264	-0.17273	-0.005493	-0.010376
56.477	0.004425	-0.27191	0.079193	0.013885	-0.006104	-0.11215	-0.029602	0.009918	0.003967	0.015869	0.007172	0.010529	-0.036316	0.019989	-0.34805	-0.007477	0.028839	0.14587	-0.45029	-0.063171	-0.052795	-0.15518	-0.047607	0.83344	0.063782	0.033875	0.10574	-0.045319	-0.49057	-0.12604	-0.017548	-0.00946
56.478	-0.000153	-0.26169	0.069885	0.001831	0.002289	-0.11246	-0.018463	0.015717	0.005951	-0.022278	0.1413	0.006866	0.051575	0.045013	-0.10391	0.013885	0.025482	0.14801	-0.5365	-0.02655	0.13168	-0.17181	-0.16892	0.28442	-0.022736	0.024109	0.083313	-0.10834	-0.059204	-0.052338	-0.007019	0
56.479	0.006714	-0.31769	0.074921	0.007477	0.019379	-0.084229	-0.030365	0.009308	0.006561	-0.027924	0.15854	0.004272	0.041351	0.10666	-0.15427	-0.00061	0.041046	0.088348	-0.44678	0.014191	0.06897	-0.14084	-0.074158	-0.24979	0.037689	-0.035553	0.042267	-0.087433	-0.17685	-0.19455	-0.003204	-0.006409
56.48	-0.007935	-0.31326	0.061493	0.006714	0.022278	-0.025177	-0.028534	0.009613	0.014496	-0.009766	0.12558	0.001984	-0.047607	-0.035706	0.41763	0.003052	0.045929	0.016022	-0.15015	0.066223	-0.064545	-0.087585	-0.016785	-0.55679	0.031433	-0.026398	0.090637	0.031891	-0.53848	-0.20325	-0.018921	-0.000458
56.481	-0.016174	-0.31998	0.060272	-0.011749	0.027771	0.029297	-0.043793	0.006104	0.016632	0.009766	0.0354	0.001221	-0.046844	-0.13825	-0.092926	0.005951	0.051727	-0.027618	0.354	0.077209	-0.20676	0.005341	0.18784	-0.69275	0.089264	-0.033875	0.016632	-0.20477	-0.31952	-0.49744	-0.01297	-0.001831
56.482	0.001678	-0.41016	0.056152	0	0.019379	0.026398	-0.056915	0.011292	0.010986	-0.009155	0.13382	-0.001373	-0.042419	-0.085449	0.06134	0.002899	0.057983	-0.090485	0.20035	-0.023651	-0.15167	0.11505	0.36118	-0.4039	0.34042	-0.014038	0.048218	-0.37491	0.065155	-0.65247	-0.010529	-0.012054
56.483	-0.007935	-0.33279	0.072174	-0.005341	0.014801	0.008545	-0.041656	0.009308	0.009613	-0.014648	0.10574	0.007629	0.010834	-0.069275	-0.30472	0.010986	0.029602	-0.16846	0.2977	-0.029297	0.098877	0.085297	0.58762	-0.5423	0.18219	-0.014954	0.089264	0.30777	0.1535	-0.63339	-0.010986	-0.031433
56.484	-0.023651	-0.37506	0.079346	-0.006561	0.01236	0.034637	-0.034485	0.011292	0.011597	-0.013733	0.15213	0.006409	0.009308	-0.053558	-0.036011	0.004578	-0.036011	-0.29663	-0.16861	0.017853	0.12512	0.06134	0.36514	-0.34256	0.13443	0.002594	-0.046539	0.20615	0.34988	-0.95444	-0.018005	-0.028229
56.485	-0.010376	-0.38345	0.070496	0.005035	0.004425	0.020447	-0.029297	0.00824	0.003204	-0.003815	0.098267	0.009155	0.026398	-0.040283	-0.13672	-0.001221	-0.062103	-0.23346	-0.35599	0.02655	0.042114	0.062103	0.20645	-0.070953	0.059814	0.006409	-0.015106	0.11536	0.35645	-0.27542	-0.019989	-0.022736
56.486	-0.007629	-0.42816	0.045929	0.007172	-0.011749	-0.022888	-0.050507	0.010986	0.011902	0.006714	0.11612	0.002899	0.002747	0.013733	-0.07309	-0.002441	-0.039215	-0.31769	0.093689	0.015564	-0.091705	0.01709	0.20218	-0.10117	-0.07843	0.015869	0.033722	0.067444	0.14481	0.8728	-0.010986	-0.018616
56.487	0.001373	-0.43762	0.032501	0.019379	-0.003357	-0.020142	-0.032959	0.018463	0.011139	0.003052	0.023499	0.00824	0.04715	-0.01709	0.14786	0.009308	0.009613	-0.33081	0.46509	0.021362	-0.14404	0.002899	0.29877	-0.022888	-0.21103	0.014954	0.015411	-0.1767	-0.020599	1.2332	-0.009308	-0.012512
56.488	-0.001984	-0.41687	0.061798	0.005493	-0.005188	0.003357	-0.023041	0.010834	0.017395	-0.016479	-0.091248	0.00351	0.11581	-0.00351	0.28885	0.016022	0.019379	-0.31921	1.0384	0.021973	-0.16846	-0.021667	0.37903	-0.1622	-0.44769	-0.010071	0.30533	-0.079346	-0.11673	0.33386	-0.016479	-0.014038
56.489	0.002594	-0.43335	0.055847	0.003967	0.00061	-0.014343	-0.036774	0.014191	0.021973	-0.011902	-0.215	0.001221	0.062866	0.013733	0.24094	0.013428	0.013275	-0.47089	0.58929	-0.00412	-0.093994	-0.054932	0.34561	-0.057068	-0.39291	-0.027161	0.074005	0.15167	-0.1474	-0.16647	-0.011902	-0.011597
56.49	0.013428	-0.46005	0.050049	-0.004272	0.017853	-0.080719	-0.040283	0.017395	0.028687	-0.007324	-0.22781	0.004883	-0.011597	0.03479	0.34882	-0.006866	0.014954	-0.55252	-0.22781	0.012817	0.21362	-0.081177	0.19241	0.1033	-0.20508	-0.010223	-0.24216	0.14664	0.016174	-0.080261	-0.015717	-0.011292
56.491	0.016785	-0.4953	0.056763	0.002289	0.042419	-0.11093	-0.042267	0.006866	0.033875	0.002136	-0.076904	-0.001221	-0.033264	0.075836	0.289	0.003967	0.036163	-0.67032	-0.25635	0.013275	0.27985	-0.13397	0.31021	-0.041809	-0.16205	0	0.36972	0.076904	0.03418	0.091553	-0.016937	-0.002899
56.492	0.013733	-0.54169	0.052795	-0.007019	0.038452	-0.018921	-0.033112	0.010071	0.01297	0.01709	0.063324	-0.001373	-0.028229	0.036316	-0.2594	0.012054	0.037231	-0.64957	-0.42618	-0.016327	0.036163	-0.055542	0.1445	-0.024567	-0.05661	0.003204	-0.22995	0.014801	0.12009	0.1709	-0.018311	0.002594
56.493	0.002747	-0.5661	0.062408	0.007172	0.020294	-0.013885	-0.019836	0.014343	0.011444	-0.001678	0.092163	0.001373	-0.016632	0.046997	-0.18814	0.001831	0.020752	-0.65109	-0.19333	-0.086365	-0.24002	0.025635	-0.23254	0.003357	0.15289	0.004272	-0.31952	0.003662	0.030975	0.030823	-0.019073	0.00412
56.494	0.014343	-0.59082	0.081482	0.006256	0.016022	-0.02533	-0.00946	0.019226	0.013885	-0.014801	0.1828	0.002441	-0.000305	0.014801	-0.1062	0.00412	0.009003	-0.63919	-0.3447	-0.097504	-0.36972	-0.036621	-0.31723	-0.018158	0.1741	-0.009003	0.10834	-0.01236	-0.031433	-0.112	-0.016479	-0.009613
56.495	0.018921	-0.63049	0.080719	-0.000916	0.025024	-0.041046	-0.040894	0.017242	0.018768	-0.002289	0.12466	0.00412	0.048523	-0.085144	-0.03952	-0.00946	-0.011597	-0.58975	-0.15854	-0.11353	-0.25391	-0.14465	-0.28091	0.089417	0.2803	-0.014191	0.30151	-0.028229	-0.14267	-0.032959	-0.01358	-0.00824
56.496	0.00824	-0.55924	0.077362	0.005188	0.036011	-0.041656	-0.040741	0.01236	0.014191	0.005341	-0.044403	0.002441	-0.006409	-0.083923	0.011139	-0.004272	-0.00885	-0.62393	0.01358	-0.088654	0.011597	-0.16602	-0.25772	-0.031738	0.26855	-0.016785	0.14496	-0.046539	-0.12314	0.071869	-0.020599	-0.014648
56.497	0.022736	-0.53192	0.07431	-0.003815	0.022583	-0.053558	-0.023956	0.010834	0.013123	-0.005493	0.012054	0.007019	-0.056763	-0.056763	-0.045471	0.006104	0.007782	-0.7048	-0.088959	-0.022125	0.15457	-0.17456	-0.19302	-0.017395	0.40512	-0.00473	0.36209	-0.033264	0.000153	-0.010986	-0.020447	-0.011749
56.498	0.007477	-0.52445	0.097351	-0.00412	0.032501	-0.04364	-0.028534	0.015717	0.000458	-0.014496	-0.01236	0.005035	0.005951	-0.021973	-0.08728	0.009613	0.03952	-0.76797	-0.21103	0.12772	0.17777	-0.18387	-0.10574	0.001221	0.43045	0.012207	0.072632	-0.03418	0.33859	-0.11459	-0.022125	-0.010986
56.499	-0.010223	-0.49911	0.099487	0.005188	0.010834	-0.023956	-0.022125	0.012512	-0.002899	-0.008545	-0.027161	-0.003052	0.011292	-0.033722	-0.19852	0.014954	0.065155	-0.8284	-0.18753	0.17731	0.14053	-0.22522	0.022888	-0.00412	0.2977	0.019989	-0.99075	-0.038147	0.43747	-0.055695	-0.016632	-0.010223
56.5	-0.00473	-0.47394	0.07843	0.006409	0.003967	-0.023346	-0.037079	0.007782	-0.016479	0.016785	-0.090942	0.001526	-0.034027	-0.06897	-0.12024	0.003815	0.056305	-0.87143	-0.058136	0.073547	-0.075836	-0.17105	-0.008698	0.003967	0.2681	0.014801	-0.64972	-0.036621	0.06958	0.072174	-0.016937	-0.024261
56.501	-0.00946	-0.47669	0.074463	-0.000916	0.009918	-0.017242	-0.029755	0.006866	-0.009766	-0.003815	-0.048676	-0.003815	-0.032959	-0.032806	-0.018005	-0.002136	0.016937	-0.81482	-0.1033	0.035553	-0.26886	-0.12405	-0.031433	0.015869	0.24551	0.013275	-0.17181	-0.038757	-0.12711	0.022736	-0.018311	-0.013123
56.502	-0.015869	-0.47058	0.043793	0.005035	0.007782	-0.036774	-0.016327	0.003662	-0.006104	-0.027313	-0.040741	0.005188	0.00885	-0.066223	0.024109	-0.004425	0.007935	-0.84747	-0.24704	0.01297	-0.039978	-0.17303	-0.05249	0.06897	0.063629	-0.022888	0.31281	-0.034332	-0.073547	-0.18585	-0.014801	-0.017548
56.503	-0.006714	-0.4393	0.024872	-0.003052	0.007629	-0.03891	-0.031281	0.007629	0.005188	-0.02533	0.033875	-0.001678	0.016327	-0.070038	0.079803	-0.00061	-0.014801	-0.89111	-0.25986	0.009308	0.19669	-0.12589	-0.011444	0.083923	-0.24002	-0.036469	0.30548	-0.033569	0.052032	-0.036774	-0.020447	-0.01236
56.504	-0.004578	-0.42328	0.020599	0	0.001221	-0.033112	-0.018768	0.002289	0.002289	-0.007629	0.058136	0.006866	-0.040894	0.001526	0.049438	-0.003815	-0.024414	-0.89249	-0.13565	0.02243	-0.028076	-0.050507	0.006866	0.00061	-0.33661	-0.030823	0.064392	-0.032349	0.087433	0.19501	-0.01709	-0.014343
